<?xml version="1.0" encoding="UTF-8" standalone="no"?>
<!-- Generator: Adobe Illustrator 16.0.0, SVG Export Plug-In . SVG Version: 6.00 Build 0)  -->

<svg
   xmlns:dc="http://purl.org/dc/elements/1.1/"
   xmlns:cc="http://creativecommons.org/ns#"
   xmlns:rdf="http://www.w3.org/1999/02/22-rdf-syntax-ns#"
   xmlns:svg="http://www.w3.org/2000/svg"
   xmlns="http://www.w3.org/2000/svg"
   xmlns:sodipodi="http://sodipodi.sourceforge.net/DTD/sodipodi-0.dtd"
   xmlns:inkscape="http://www.inkscape.org/namespaces/inkscape"
   version="1.1"
   id="Capa_1"
   x="0px"
   y="0px"
   width="442.246px"
   height="442.246px"
   viewBox="0 0 442.246 442.246"
   style="enable-background:new 0 0 442.246 442.246;"
   xml:space="preserve"
   sodipodi:docname="link.svg"
   inkscape:version="0.92.5 (2060ec1f9f, 2020-04-08)"><metadata
   id="metadata45"><rdf:RDF><cc:Work
       rdf:about=""><dc:format>image/svg+xml</dc:format><dc:type
         rdf:resource="http://purl.org/dc/dcmitype/StillImage" /></cc:Work></rdf:RDF></metadata><defs
   id="defs43" /><sodipodi:namedview
   pagecolor="#ffffff"
   bordercolor="#666666"
   borderopacity="1"
   objecttolerance="10"
   gridtolerance="10"
   guidetolerance="10"
   inkscape:pageopacity="0"
   inkscape:pageshadow="2"
   inkscape:window-width="3840"
   inkscape:window-height="2098"
   id="namedview41"
   showgrid="false"
   inkscape:zoom="0.53363965"
   inkscape:cx="221.123"
   inkscape:cy="221.123"
   inkscape:window-x="0"
   inkscape:window-y="0"
   inkscape:window-maximized="1"
   inkscape:current-layer="Capa_1" />
<g
   id="g8"
   style="fill:#61dbfb;fill-opacity:1">
	<g
   id="g6"
   style="fill:#61dbfb;fill-opacity:1">
		<path
   d="M409.657,32.474c-43.146-43.146-113.832-43.146-156.978,0l-84.763,84.762c29.07-8.262,60.589-6.12,88.129,6.732    l44.063-44.064c17.136-17.136,44.982-17.136,62.118,0c17.136,17.136,17.136,44.982,0,62.118l-55.386,55.386l-36.414,36.414    c-17.136,17.136-44.982,17.136-62.119,0l-47.43,47.43c11.016,11.017,23.868,19.278,37.332,24.48    c36.415,14.382,78.643,8.874,110.467-16.219c3.06-2.447,6.426-5.201,9.18-8.262l57.222-57.222l34.578-34.578    C453.109,146.306,453.109,75.926,409.657,32.474z"
   id="path2"
   style="fill:#61dbfb;fill-opacity:1" />
		<path
   d="M184.135,320.114l-42.228,42.228c-17.136,17.137-44.982,17.137-62.118,0c-17.136-17.136-17.136-44.981,0-62.118    l91.8-91.799c17.136-17.136,44.982-17.136,62.119,0l47.43-47.43c-11.016-11.016-23.868-19.278-37.332-24.48    c-38.25-15.3-83.232-8.262-115.362,20.502c-1.53,1.224-3.06,2.754-4.284,3.978l-91.8,91.799    c-43.146,43.146-43.146,113.832,0,156.979c43.146,43.146,113.832,43.146,156.978,0l82.927-83.845    C230.035,335.719,220.243,334.496,184.135,320.114z"
   id="path4"
   style="fill:#61dbfb;fill-opacity:1" />
	</g>
</g>
<g
   id="g10">
</g>
<g
   id="g12">
</g>
<g
   id="g14">
</g>
<g
   id="g16">
</g>
<g
   id="g18">
</g>
<g
   id="g20">
</g>
<g
   id="g22">
</g>
<g
   id="g24">
</g>
<g
   id="g26">
</g>
<g
   id="g28">
</g>
<g
   id="g30">
</g>
<g
   id="g32">
</g>
<g
   id="g34">
</g>
<g
   id="g36">
</g>
<g
   id="g38">
</g>
</svg>