<?xml version="1.0" encoding="UTF-8" standalone="no"?>
<svg
   xmlns:dc="http://purl.org/dc/elements/1.1/"
   xmlns:cc="http://creativecommons.org/ns#"
   xmlns:rdf="http://www.w3.org/1999/02/22-rdf-syntax-ns#"
   xmlns:svg="http://www.w3.org/2000/svg"
   xmlns="http://www.w3.org/2000/svg"
   style="fill:none"
   id="svg18"
   version="1.1"
   viewBox="0 0 114.02915 81.361252"
   height="81.361252"
   width="114.02915">
  <metadata
     id="metadata24">
    <rdf:RDF>
      <cc:Work
         rdf:about="">
        <dc:format>image/svg+xml</dc:format>
        <dc:type
           rdf:resource="http://purl.org/dc/dcmitype/StillImage" />
        <dc:title></dc:title>
      </cc:Work>
    </rdf:RDF>
  </metadata>
  <defs
     id="defs22" />
  <g
     transform="translate(-50.8281,-50)"
     id="g836">
    <path
       style="fill:#4a6dff"
       d="m 163.1,78.5475 c 2.343,2.3432 2.343,6.1422 0,8.4853 l -42.571,42.5712 c -2.343,2.343 -6.142,2.343 -8.485,0 l -26.7905,-26.79 c -2.3432,-2.343 -2.3432,-6.1422 0,-8.4854 L 127.825,51.7574 c 2.343,-2.3432 6.142,-2.3432 8.485,0 z"
       id="path2" />
    <path
       style="fill:#2eb9ff"
       d="m 130.432,78.5475 c 2.343,2.3432 2.343,6.1422 0,8.4853 L 87.8609,129.604 c -2.3431,2.343 -6.1421,2.343 -8.4853,0 l -26.7901,-26.79 c -2.3432,-2.343 -2.3432,-6.1422 0,-8.4854 L 95.1568,51.7574 c 2.3431,-2.3432 6.1422,-2.3432 8.4852,0 z"
       id="path4" />
  </g>
</svg>
